%
M48
M72
T01C0.0276
T02C0.0394
T03C0.0400
%
T01
X3462Y4249
X3462Y5037
X3462Y5824
X3462Y6612
X3462Y7399
X3462Y8186
X3462Y8974
X3462Y9761
X3462Y12911
X2675Y12911
X1887Y12911
X1100Y12911
X4249Y12911
X5037Y12911
X5824Y12911
X6612Y12911
X9761Y12911
X9761Y13698
X9761Y14486
X9761Y15273
X9761Y12123
X9761Y11336
X9761Y10549
X9761Y9761
X9761Y6612
X8974Y6612
X8186Y6612
X7399Y6612
X6612Y6612
X10549Y6612
X11336Y6612
X12123Y6612
T02
X11336Y9761
X6612Y5037
X1887Y9761
X6612Y14486
T03
X3112Y1387
X3112Y2387
X4112Y2387
X4112Y1387
X5112Y1387
X5112Y2387
X6112Y2387
X6112Y1387
X7112Y1387
X7112Y2387
X8112Y2387
X8112Y1387
X9112Y1387
X9112Y2387
X10112Y2387
X10112Y1387
X10112Y17135
X10112Y18135
X9112Y18135
X9112Y17135
X8112Y17135
X8112Y18135
X7112Y18135
X7112Y17135
X6112Y17135
X6112Y18135
X5112Y18135
X5112Y17135
X4112Y17135
X4112Y18135
X3112Y18135
X3112Y17135
M30
