%
M48
M72
T01C0.0236
T02C0.0394
T03C0.0400
%
T01
X4096Y6430
X4496Y8590
X5136Y8590
X4476Y9270
X6176Y8590
X6191Y10738
X6576Y11470
X7136Y11470
X7616Y10660
X8180Y10147
X9616Y9950
X10736Y10190
X11696Y10190
X10736Y11370
X10086Y12570
X9606Y13620
X9106Y13630
X8636Y13890
X8616Y14530
X9236Y14210
X10806Y14520
X10176Y15790
X11936Y16110
X12056Y16880
X12396Y13640
X13396Y13640
X13896Y13640
X14396Y13640
X15376Y13710
X14896Y12190
X14336Y12190
X13346Y10810
X12846Y10810
X12896Y12190
X12356Y12248
X11856Y12270
X8096Y15790
X7216Y14030
X5166Y14289
X4096Y14030
X4656Y11470
X5136Y11470
X11215Y7705
X15296Y7786
T02
X14794Y17742
X14794Y18742
X14794Y19742
X14794Y20742
X4557Y20742
X4557Y19742
X4557Y18742
X4557Y17742
T03
X6176Y19332
X7176Y19332
X8176Y19332
X9176Y19332
X10176Y19332
X11176Y19332
X12176Y19332
X13176Y19332
X13176Y20332
X12176Y20332
X11176Y20332
X10176Y20332
X9176Y20332
X8176Y20332
X7176Y20332
X6176Y20332
X14676Y6510
X14676Y5510
X14676Y4510
X14676Y3510
X13176Y3584
X12176Y3584
X12176Y4584
X13176Y4584
X11176Y4584
X11176Y3584
X10176Y3584
X10176Y4584
X9176Y4584
X8176Y4584
X8176Y3584
X9176Y3584
X7176Y3584
X7176Y4584
X6176Y4584
X6176Y3584
M30
